<?xml version="1.0" encoding="utf-8"?>
<svg version="1.1" id="Layer_1" xmlns="http://www.w3.org/2000/svg" xmlns:xlink="http://www.w3.org/1999/xlink" x="0px" y="0px"
	 width="170px" height="23px" viewBox="0 0 170 23" enable-background="new 0 0 170 23" xml:space="preserve">
<path d="M70.973,14.66H81.64l-5.636-9.082L65.659,21.997L60.943,22L73.538,2.283C74.073,1.481,74.994,1,75.997,1
	c0.991,0,1.901,0.468,2.438,1.248L91.073,22l-4.72-0.003l-2.213-3.672H73.33L70.973,14.66z M119.916,18.328V1.205h-3.998v18.8
	c0,0.521,0.21,1.015,0.58,1.386c0.393,0.393,0.91,0.606,1.466,0.606h18.231l2.351-3.669H119.916z M53.775,15.268
	c3.88,0,7.028-3.151,7.028-7.033c0-3.882-3.148-7.029-7.028-7.029H36.28v20.792h3.996V4.869H53.5c1.863,0,3.364,1.506,3.364,3.365
	c0,1.858-1.501,3.367-3.364,3.367l-11.266-0.004l11.931,10.399h5.809l-8.029-6.736L53.775,15.268z M11.675,21.997
	c-5.739,0-10.396-4.654-10.396-10.396c0-5.742,4.656-10.396,10.396-10.396h12.084c5.741,0,10.395,4.654,10.395,10.396
	C34.153,17.346,29.5,22,23.759,22L11.675,21.997z M23.489,18.334c3.719,0,6.729-3.014,6.729-6.732s-3.012-6.73-6.729-6.73
	L11.943,4.869c-3.718,0-6.731,3.015-6.731,6.732c0,3.719,3.014,6.732,6.731,6.732L23.489,18.334L23.489,18.334z M99.41,21.997
	c-5.734,0-10.395-4.654-10.395-10.396c0-5.742,4.659-10.396,10.395-10.396h14.359l-2.352,3.666L99.682,4.869
	c-3.722,0-6.731,3.015-6.731,6.732c0,3.719,3.011,6.732,6.731,6.732h14.416l-2.349,3.663L99.41,21.997L99.41,21.997z
	 M148.316,18.334c-3.076,0-5.678-2.072-6.474-4.895h17.089l2.354-3.665l-19.448-0.002c0.795-2.829,3.393-4.904,6.479-4.904
	l11.729,0.002l2.355-3.666h-14.357c-5.74,0-10.396,4.654-10.396,10.396c0,5.741,4.656,10.396,10.396,10.396h12.335l2.349-3.663
	H148.316z M164.544,3.418c0-1.014,0.821-1.835,1.837-1.835s1.834,0.821,1.834,1.835c0,1.019-0.818,1.841-1.834,1.841
	S164.544,4.437,164.544,3.418z M166.381,5.765c1.29,0,2.34-1.048,2.34-2.338c0-1.292-1.05-2.337-2.34-2.337
	c-1.289,0-2.335,1.045-2.335,2.337C164.046,4.717,165.092,5.765,166.381,5.765z M166.161,2.04c0.36,0,0.507,0.003,0.685,0.07
	c0.463,0.154,0.51,0.579,0.51,0.734c0,0.032-0.006,0.121-0.028,0.215c-0.026,0.099-0.085,0.299-0.325,0.45
	c-0.027,0.019-0.042,0.033-0.115,0.06l0.606,1.089h-0.589l-0.533-1.001h-0.354v1.001h-0.515V2.04H166.161z M166.344,3.224
	c0.158-0.002,0.333-0.016,0.436-0.164c0.044-0.064,0.061-0.135,0.061-0.226c0-0.142-0.074-0.256-0.197-0.316
	c-0.117-0.046-0.236-0.046-0.479-0.046h-0.146v0.752H166.344z"/>
</svg>
