<?xml version="1.0" encoding="utf-8"?>
<svg version="1.1" id="Layer_1" xmlns="http://www.w3.org/2000/svg" xmlns:xlink="http://www.w3.org/1999/xlink" x="0px" y="0px"
	 width="13px" height="9px" viewBox="0 0 13 9" enable-background="new 0 0 13 9" xml:space="preserve">
<path fill="#5C5C5C" d="M7.219,7.714l5.002-5.001c0.172-0.18,0.279-0.425,0.279-0.694c0-0.553-0.447-1.001-0.999-1.001
	c-0.271,0-0.515,0.107-0.696,0.28L6.512,5.593L2.22,1.298C2.038,1.11,1.781,0.993,1.5,0.993c-0.552,0-1,0.449-1,1.001
	c0,0.282,0.117,0.536,0.305,0.719l5.001,5.001c0.182,0.183,0.431,0.293,0.706,0.293C6.789,8.007,7.037,7.896,7.219,7.714
	L7.219,7.714L7.219,7.714z"/>
</svg>
